<svg width="144" height="36" viewBox="0 0 144 36" fill="none" xmlns="http://www.w3.org/2000/svg">
<g clip-path="url(#clip0_4480_28183)">
<path d="M17.4549 0C9.02336 0 0 7.23112 0 18C0 27.9285 7.82925 36 17.4549 36H126.587C136.192 36 144 27.9285 144 18C144 7.23112 134.997 0 126.587 0H17.4549Z" fill="url(#paint0_linear_4480_28183)"/>
<path d="M14.6098 11.1009H17.216V12.9683H17.2783C18.1402 11.4536 20.165 10.7896 22.3455 10.7896C27.2258 10.7896 29.6556 14.1406 29.6556 18.0311C29.6556 21.9216 27.257 25.1896 22.4078 25.1896C20.7776 25.1896 18.4413 24.6605 17.2783 23.0317H17.216V30.1383H14.6098V11.1009ZM21.9821 12.7816C18.4828 12.7816 17.133 15.396 17.133 17.9792C17.133 20.6974 18.5451 23.1977 22.1379 23.1977C25.7306 23.1977 26.8936 20.5625 26.8936 17.8755C26.8936 15.1885 25.3568 12.7919 21.9821 12.7919V12.7816Z" fill="default"/>
<path d="M32.6461 11.1009H35.107V14.0058H35.1693C36.4257 11.796 38.1806 10.7066 41.0049 10.7792V13.1758C36.7995 13.1758 35.2628 15.2507 35.2628 18.747V24.868H32.6565V11.1009H32.6461Z" fill="default"/>
<path d="M57.0372 24.8161C56.5803 25.0547 55.9885 25.1896 55.1682 25.1896C53.8183 25.1896 52.9565 24.5464 52.9565 23.0628C51.5131 24.5256 49.5818 25.1896 47.3701 25.1896C44.4834 25.1896 42.116 24.0692 42.116 21.3303C42.116 18.2179 44.7845 17.5539 47.4947 17.0974C50.3813 16.6202 52.8422 16.7758 52.8422 15.0743C52.8422 13.1032 50.9628 12.7816 49.3118 12.7816C47.1001 12.7816 45.4699 13.3729 45.3453 15.396H42.739C42.8947 11.9827 45.9371 10.7896 49.4676 10.7896C52.323 10.7896 55.4278 11.3499 55.4278 14.5764V21.6622C55.4278 22.7308 55.4278 23.2081 56.2584 23.2081C56.4765 23.2081 56.7153 23.1769 57.058 23.0732V24.8265L57.0372 24.8161ZM52.8007 17.7614C51.7831 18.4046 49.8206 18.4254 48.0658 18.6951C46.3421 18.9648 44.8676 19.4939 44.8676 21.1746C44.8676 22.6686 46.3421 23.1977 47.9412 23.1977C51.3781 23.1977 52.7903 21.3303 52.7903 20.0853V17.7718L52.8007 17.7614Z" fill="default"/>
<path d="M70.2452 15.5205C69.8506 13.7879 68.4592 12.7816 66.3098 12.7816C62.5301 12.7816 61.3672 15.3648 61.3672 18.166C61.3672 20.6974 62.6859 23.1977 66.0087 23.1977C68.5319 23.1977 70.0271 21.9216 70.3698 19.8467H73.0384C72.4569 23.1977 70.0271 25.2 66.0294 25.2C61.1803 25.2 58.5948 22.2743 58.5948 18.166C58.5948 14.0576 61.0557 10.7896 66.0917 10.7896C69.6845 10.7896 72.5711 12.2524 72.9449 15.5308H70.2452V15.5205Z" fill="default"/>
<path d="M89.1122 24.868H86.6513V22.6893H86.589C85.4883 24.3908 83.7023 25.1896 81.4283 25.1896C77.2541 25.1896 75.9562 23.1147 75.9562 20.1579V11.1009H78.5625V20.4173C78.5625 22.098 79.7877 23.1873 81.7918 23.1873C84.9588 23.1873 86.4955 21.351 86.4955 18.8715V11.0905H89.1018V24.8576L89.1122 24.868Z" fill="default"/>
<path d="M95.8096 26.6317C95.8096 29.0801 94.304 30.1487 91.9988 30.1487C91.5731 30.1487 91.1059 30.1176 90.649 30.045V28.1049C91.0124 28.1568 91.3551 28.1568 91.7289 28.1568C92.8607 28.1568 93.2033 27.6795 93.2033 26.2686V11.1009H95.8096V26.6317ZM95.8096 8.63169H93.2033V5.86166H95.8096V8.63169Z" fill="default"/>
<path d="M100.451 21.9112H103.857V24.868H100.451V21.9112Z" fill="default"/>
<path d="M108.498 11.1009H111.105V12.9683H111.167C112.029 11.4536 114.054 10.7896 116.234 10.7896C121.115 10.7896 123.544 14.1406 123.544 18.0311C123.544 21.9216 121.146 25.1896 116.297 25.1896C114.666 25.1896 112.33 24.6605 111.167 23.0317H111.105V30.1383H108.498V11.1009ZM115.871 12.7816C112.372 12.7816 111.022 15.396 111.022 17.9792C111.022 20.6974 112.434 23.1977 116.027 23.1977C119.619 23.1977 120.782 20.5625 120.782 17.8755C120.782 15.1885 119.245 12.7919 115.871 12.7919V12.7816Z" fill="default"/>
<path d="M126.784 5.85129H129.401V24.868H126.784V5.85129Z" fill="default"/>
</g>
<defs>
<linearGradient id="paint0_linear_4480_28183" x1="0" y1="18" x2="144" y2="18" gradientUnits="userSpaceOnUse">
<stop stop-color="#1C75BC"/>
<stop offset="1" stop-color="#262262"/>
</linearGradient>
<clipPath id="clip0_4480_28183">
<rect width="144" height="36" fill="default"/>
</clipPath>
</defs>
</svg>
